<?xml version="1.0" encoding="utf-8"?>
<!-- Generator: Adobe Illustrator 21.0.0, SVG Export Plug-In . SVG Version: 6.00 Build 0)  -->
<svg version="1.1" id="Calque_1" xmlns="http://www.w3.org/2000/svg" xmlns:xlink="http://www.w3.org/1999/xlink" x="0px" y="0px"
	 viewBox="0 0 841.9 595.3" style="enable-background:new 0 0 841.9 595.3;" xml:space="preserve">
<style type="text/css">
	.st0{fill:#4A9328;}
</style>
<path class="st0" d="M421.8,572.8c-132.4,0-264.8,0-397.2,0c-1.8,0-2.2-0.4-2.2-2.2c0-181.9,0-363.8,0-545.8c0-1.8,0.4-2.2,2.2-2.2
	c264.8,0,529.6,0,794.4,0c1.8,0,2.2,0.4,2.2,2.2c0,181.9,0,363.8,0,545.8c0,1.8-0.4,2.2-2.2,2.2
	C686.6,572.8,554.2,572.8,421.8,572.8z M437.1,556.3c62.4-1.2,127.9-29.4,179.2-87.3c51.3-57.9,72-126.3,63.3-203.1
	c-6.7-58.9-31.6-109.7-73.6-151.4c-54.3-54-120.3-79.3-196.8-75.7C342,41.9,284.4,68,237.5,116.2c-54.1,55.7-78.5,123.1-73.3,200.4
	C173,447,282.5,556.1,437.1,556.3z"/>
<path class="st0" d="M339.4,286.3c13.3,0,26.6,0,39.8,0c1.6,0,2.7,0.4,4,1.6c12.4,12,27.5,16.8,44.5,15.4
	c13.5-1.1,25.2-6.3,34.6-16.2c0.7-0.7,1.5-0.8,2.4-0.8c27.1,0,54.2,0,81.4,0c1.6,0,2.2,0.6,2.6,2c5,15.9,8,32.3,8.6,49
	c0.8,19-1.2,37.7-7.2,55.8c-14.3,43.3-43.7,70.4-88,81.4c-16.5,4.1-33.4,5.1-50.3,4.2c-21.7-1.2-42.7-6-62-16.7
	c-27.6-15.4-45.4-38.8-55.2-68.5c-3.4-10.4-5.4-21.2-6.7-32.1c-1.2-10.2-1.2-20.4-0.4-30.6c1.1-14.6,4.1-28.9,8.5-42.9
	c0.5-1.6,1.4-1.6,2.7-1.6C312.3,286.3,325.8,286.3,339.4,286.3z M409.3,408.5c0,5.9,0.1,11.8,0,17.8c0,2.1,0.5,2.9,2.8,2.9
	c6.9-0.1,13.8-0.1,20.6,0c2.4,0.1,2.9-0.8,2.9-3c-0.1-11.7,0-23.4-0.1-35c0-1.8,0.6-2.9,2-4c9.3-7.3,12.2-20,6.5-30.4
	c-4.9-9-12.6-13.2-23.1-12.9c-11.5,0.3-22.7,10.7-23,22.2c-0.3,8.8,3,16,10,21.5c1.1,0.8,1.5,1.7,1.5,3
	C409.2,396.5,409.3,402.5,409.3,408.5z"/>
<path class="st0" d="M321,241.2c0.2-9.2-0.2-19.9,0.9-30.6c4.4-40.6,32.5-73,72.4-83.2c13-3.3,26.2-4.4,39.5-2.9
	c28.9,3.2,53,15.3,70.7,38.9c10.4,13.8,16,29.6,18.1,46.6c1.5,11.9,1.1,23.9,1.1,35.9c0,6.8-0.1,13.6,0,20.4c0,2-0.4,2.8-2.6,2.7
	c-15.1-0.1-30.2-0.1-45.4,0c-2,0-2.6-0.5-2.5-2.5c0.1-14.6,0.3-29.3-0.1-43.9c-0.4-13.5-4.3-25.8-14.4-35.5
	c-5.8-5.6-12.7-9.1-20.5-11c-10.7-2.6-21.4-2.7-32.1,0.1c-19.5,5-30.2,18.2-33.8,37.5c-0.8,4.3-1.1,8.7-1.1,13.1
	c0,13.2,0,26.4,0.1,39.6c0,2.1-0.6,2.7-2.7,2.7c-15-0.1-30.1-0.1-45.1,0c-2,0-2.8-0.4-2.7-2.6C321,258.5,321,250.6,321,241.2z"/>
<path class="st0" d="M413.6,368c0-5,3.9-8.8,8.8-8.8c4.9,0,8.8,4,8.8,8.9c-0.1,4.8-3.9,8.6-8.7,8.7
	C417.6,376.8,413.6,372.9,413.6,368z"/>
</svg>
